<svg xmlns="http://www.w3.org/2000/svg" viewBox="0 0 141.73 141.73"><g id="Capa_1" data-name="Capa 1"><path class="cls-1" d="M67.48,78.21a6.21,6.21,0,0,0,6.86-3,8.12,8.12,0,0,0-.14-8.92c-3.4-5.51-9.7-7.57-16.25-5.38a17.08,17.08,0,0,0-10.52,22.2c4.83,12.72,19.12,18.16,32.15,12.25,17.24-7.82,21.08-29.58,8.15-43.81C75.39,37.92,54,37.12,39.6,49.14c-15.57,13-17.77,34.51-4.94,51.33,10.21,13.4,24.16,17.92,40.44,16.19,18.34-1.94,35.3-17.12,39.11-35.14,4.08-19.31-2.45-35.09-16.84-48a47.48,47.48,0,0,0-15.71-9.15c-3.64-1.31-5.14-4.24-4-7.34s4.22-4,7.89-2.54c20.77,8.34,34.53,23.14,39.21,45.1,6.76,31.66-12.87,58-40.09,65.92-27.83,8.1-59-5.09-67.65-37.58C10,61.32,29.64,33.43,57.14,30.32,79.76,27.76,96.41,40.52,103.06,56c10.7,24.94-7.74,52.63-34.75,52.32-16.76-.19-30.66-12.19-32.43-28.62C34.71,68.81,39,59.91,48.2,53.91c8.78-5.74,18.18-6.49,27.42-1,10,6,13.36,17.74,8.21,27.24C78.46,90.09,64.58,92.13,58,84c-3.6-4.43-3.57-10.49.1-13.93a7.65,7.65,0,0,1,8.48-1.61C70.47,69.94,70.94,74,67.48,78.21Z"/></g></svg>
